<svg id="Layer_1" data-name="Layer 1" xmlns="http://www.w3.org/2000/svg" viewBox="0 0 1075 462.904">
  <defs>
    <style>
      .cls-1 {
        fill: #9b9a9a;
      }
    </style>
  </defs>
  <title>HIll 1</title>
  <polygon class="cls-1" points="0 462.904 0 289.486 19.127 278.986 49.126 278.986 71.624 259.592 85.124 217.489 103.123 205.49 134.621 205.49 179.619 205.49 218.617 172.491 274.114 172.491 367.11 185.991 427 163.492 449.606 128.994 502.103 58.497 518.602 58.497 577.099 58.497 640.096 71.996 691.093 67.497 751 77.996 790.088 98.995 841.086 76.496 883.084 58.497 946.081 64.497 995.578 17.999 1028.577 25.499 1058.575 17.999 1075 0 1075 462.904 0 462.904"/>
</svg>
