<svg id="Layer_1" data-name="Layer 1" xmlns="http://www.w3.org/2000/svg" viewBox="0 0 1075 859.738">
  <defs>
    <style>
      .cls-1 {
        fill: #545353;
      }

      .cls-2 {
        fill: #777;
      }
    </style>
  </defs>
  <title>HIll 12</title>
  <path class="cls-1" d="M648-101.073s-29.075-23.559-80.861-98L533.21-178.345l-16.821-.859-62.205-50.889h-9.524l-9.227,2.2L399.717-239.2H391.68v34.554l-7.441,12.565-26.291,9.319-15.874,21.78-19.842,18.429-17.461,1.675L263.5-106.535l-27.779-21.78-13.493-22.617-19.049-19.205-6.35-16.815-5.556-14.241-4.762-14.241-8.731,14.241L162.7-170.138,145.24-151.77l-10.318,28.481L105.555-105.7,84.919-94.808,73.014-68.839s-19.049,25.549-50.8-5.026L2.375-90.619l-23.017-4.188L-50.8-122.451l-24.6-20.942-9.524-12.565-21.43,20.1-26.985,27.644-9.524,2.513-29.367-25.131-23.017-10.89-3.968-17.591-24.6-18.429-23.811-39.371-21.43-41.047-26.985,20.942-11.112,16.754v15.916l-16.667,28.481L-337.324-158.5h-10.318l-5.556,6.727-17.461-1.675-7.937,18.429-15.08,13.4-12.7,7.539L-427-94.808V84.038L648,300.16Z" transform="translate(427 258.156)"/>
  <polygon class="cls-2" points="0 859.738 1075 859.738 1075 475.757 992.578 489.257 973.079 457.758 932.581 415.76 851.585 429.26 818.587 415.76 766.09 357.263 652.095 321.265 626.597 340.764 548.601 330.264 454.105 321.265 406.108 339.264 376.109 390.261 335.611 396.261 287.614 373.762 280.114 349.764 236.616 297.266 170.619 267.268 85.124 231.269 31.126 268.768 0 283.767 0 859.738"/>
</svg>
